<svg xmlns="http://www.w3.org/2000/svg" fill="none" viewBox="0 0 39 36"><path stroke="#444A4B" stroke-width="2" d="M6.4 1H32a5.4 5.4 0 0 1 5.4 5.4v19.2A5.4 5.4 0 0 1 32 31H6.4A5.4 5.4 0 0 1 1 25.6V6.4A5.4 5.4 0 0 1 6.4 1Z"/><path fill="#444A4B" d="M27.6 32.8H10.8a1.2 1.2 0 0 0 0 2.4h16.8a1.2 1.2 0 0 0 0-2.4Z"/><mask id="a" width="23" height="24" x="8" y="4" maskUnits="userSpaceOnUse" style="mask-type:luminance"><path fill="#fff" d="M30.4 4.8H8v22.4h22.4V4.8Z"/></mask><g fill="#444A4B" mask="url(#a)"><path d="M19.2 10.4c-2.329 0-4.407.651-5.776 1.955a2.715 2.715 0 0 1-.144-.2c-.207-.33-.448-.716-.624-1.105a3.9 3.9 0 0 1-.085-.204c.151.037.332.064.527.051a1.068 1.068 0 0 0 .89-.614 1.34 1.34 0 0 0 .115-.581c-.002-.295-.073-.639-.153-.952-.168-.647-.5-2.992-.703-3.484l-1.48 2.281c.167.405.38.98.528 1.492a1.217 1.217 0 0 0-.675.043c-.551.199-.732.687-.787.988-.114.623.1 1.251.308 1.713.218.483.435.669.435.669l.6.692.363.323a5.396 5.396 0 0 0-.643 1.593c-.306-.157-.664-.34-.978-.547a4.429 4.429 0 0 1-.16-.11 1.33 1.33 0 0 0 .391-.136.631.631 0 0 0 .316-.703 1.126 1.126 0 0 0-.208-.432 4.162 4.162 0 0 0-.577-.595c-.437-.386-1.828-1.869-2.213-2.138l.1 2.026c.315.22.748.541 1.104.84a1.036 1.036 0 0 0-.084.024.826.826 0 0 0-.365.224c-.285.313-.169.702-.058.924.228.46.687.816 1.06 1.062.391.258.635.314.635.314l.76.276.136.034c-.008.136-.022.269-.022.41 0 4.09 3.343 8.333 7.467 8.333s7.467-4.242 7.467-8.333c0-4.09-3.343-6.134-7.467-6.134Zm-5.19 10.966-.002-.005c-1.121-1.394-1.807-3.19-1.807-4.954 0-3.696 3.01-5.541 6.722-5.541 2.528 0 4.73.856 5.878 2.569-1.21-1.434-3.25-2.151-5.563-2.151-3.713 0-6.722 1.846-6.722 5.541 0 1.593.559 3.21 1.492 4.536l.003.005Zm5.19.7c-3.144 0-6.183-2.66-6.183-5.332 0-2.672 3.039-2.08 6.183-2.08 3.145 0 6.184-.592 6.184 2.08 0 2.673-3.039 5.331-6.184 5.331Z"/><path d="M24.26 16.895c.262.668-.289 1.463-1.23 1.777-.941.314-1.917.027-2.179-.64-.262-.667.265-.943 1.207-1.257.94-.314 1.94-.547 2.201.12Zm-10.119 0c-.262.668.288 1.463 1.23 1.777.941.314 1.917.027 2.179-.64.262-.667-.265-.943-1.207-1.257-.941-.314-1.94-.547-2.202.12Z"/></g></svg>